<?xml version="1.0" encoding="iso-8859-1"?>
<!-- Generator: Adobe Illustrator 19.0.0, SVG Export Plug-In . SVG Version: 6.00 Build 0)  -->
<svg xmlns="http://www.w3.org/2000/svg" xmlns:xlink="http://www.w3.org/1999/xlink" version="1.1" id="Capa_1" x="0px" y="0px" viewBox="0 0 512 512" style="enable-background:new 0 0 512 512;" xml:space="preserve" width="512px" height="512px">
<g>
	<g>
		<g>
			<path d="M55.482,211.431c-1.951-2.132-4.694-3.366-7.583-3.412l-0.222-0.004c-4.216,0.003-8.03,2.501-9.719,6.364     s-0.933,8.359,1.927,11.456l7.516,8.142l15.021-15.026L55.482,211.431z" fill="#FFFFFF"/>
			<path d="M152.08,330.944c-1.497-11.32-6.466-21.898-14.222-30.278l-62.56-67.774l-15.026,15.026l61.012,66.095     C129.449,322.838,140.254,328.778,152.08,330.944z" fill="#FFFFFF"/>
			<path d="M465.45,0h-28.444v20.71c13.061,4.618,20.896,17.974,18.553,31.628c-2.343,13.654-14.181,23.634-28.035,23.634     s-25.692-9.98-28.035-23.634c-2.343-13.654,5.492-27.01,18.553-31.628V0H304.265v20.71c13.061,4.618,20.896,17.974,18.553,31.628     c-2.343,13.654-14.181,23.634-28.035,23.634c-13.854,0-25.692-9.98-28.035-23.634c-2.343-13.654,5.492-27.01,18.553-31.628V0     H171.524v20.71c13.061,4.618,20.896,17.974,18.553,31.628c-2.343,13.654-14.181,23.634-28.035,23.634     c-13.853,0-25.692-9.98-28.035-23.634c-2.343-13.654,5.492-27.01,18.553-31.628V0h-28.444c-5.234,0.007-9.475,4.248-9.482,9.482     v237.037c0,0.3-0.144,0.554-0.171,0.847l37.329,40.44c12.479,13.508,19.496,31.17,19.689,49.559l6.747,6.747     c2.424,2.389,3.382,5.894,2.509,9.184c-0.873,3.29-3.442,5.859-6.732,6.732s-6.795-0.085-9.184-2.509l-6.921-6.921     c-15.857-0.896-31.015-6.831-43.265-16.94v168.861c0.007,5.234,4.248,9.475,9.482,9.482H465.45     c5.234-0.007,9.475-4.248,9.482-9.482V9.482C474.925,4.248,470.684,0.007,465.45,0z M198.07,223.764l-28.444,37.926     c-1.649,2.199-4.171,3.574-6.912,3.769c-0.222,0.014-0.449,0.023-0.671,0.023c-2.515,0.001-4.927-0.999-6.703-2.778     l-18.963-18.963c-3.645-3.712-3.618-9.668,0.06-13.346c3.679-3.679,9.635-3.706,13.346-0.06l11.231,11.232l21.889-29.181     c2.033-2.709,5.357-4.128,8.719-3.722s6.253,2.575,7.583,5.69C200.536,217.467,200.103,221.055,198.07,223.764L198.07,223.764z      M198.07,119.468L198.07,119.468l-28.444,37.926c-1.649,2.199-4.171,3.574-6.912,3.768c-0.222,0.014-0.449,0.023-0.671,0.023     c-2.515,0.001-4.927-0.999-6.703-2.778l-18.963-18.963c-3.645-3.712-3.618-9.668,0.06-13.346s9.635-3.706,13.346-0.06     l11.231,11.231l21.889-29.181c2.033-2.709,5.357-4.128,8.719-3.722s6.253,2.575,7.583,5.69     C200.536,113.171,200.103,116.759,198.07,119.468z M446.487,464.593H228.413c-5.236,0-9.481-4.245-9.481-9.482     c0-5.236,4.245-9.481,9.481-9.481h218.074c5.236,0,9.482,4.245,9.482,9.481C455.969,460.348,451.724,464.593,446.487,464.593z      M446.487,360.296H228.413c-5.236,0-9.481-4.245-9.481-9.482s4.245-9.482,9.481-9.482h218.074c5.236,0,9.482,4.245,9.482,9.482     S451.724,360.296,446.487,360.296z M446.487,256H228.413c-5.236,0-9.481-4.245-9.481-9.482c0-5.236,4.245-9.481,9.481-9.481     h218.074c5.236,0,9.482,4.245,9.482,9.481C455.969,251.755,451.724,256,446.487,256z M446.487,151.704H228.413     c-5.236,0-9.481-4.245-9.481-9.481s4.245-9.482,9.481-9.482h218.074c5.236,0,9.482,4.245,9.482,9.482     S451.724,151.704,446.487,151.704z" fill="#FFFFFF"/>
			<circle cx="162.043" cy="47.407" r="9.482" fill="#FFFFFF"/>
			<circle cx="427.524" cy="47.407" r="9.482" fill="#FFFFFF"/>
			<circle cx="294.783" cy="47.407" r="9.482" fill="#FFFFFF"/>
		</g>
	</g>
</g>
<g>
</g>
<g>
</g>
<g>
</g>
<g>
</g>
<g>
</g>
<g>
</g>
<g>
</g>
<g>
</g>
<g>
</g>
<g>
</g>
<g>
</g>
<g>
</g>
<g>
</g>
<g>
</g>
<g>
</g>
</svg>
